<?xml version="1.0" encoding="UTF-8" standalone="no"?><!DOCTYPE svg PUBLIC "-//W3C//DTD SVG 1.1//EN" "http://www.w3.org/Graphics/SVG/1.1/DTD/svg11.dtd"><svg width="100%" height="100%" viewBox="0 0 1080 1080" version="1.1" xmlns="http://www.w3.org/2000/svg" xmlns:xlink="http://www.w3.org/1999/xlink" xml:space="preserve" xmlns:serif="http://www.serif.com/" style="fill-rule:evenodd;clip-rule:evenodd;stroke-linejoin:round;stroke-miterlimit:2;"><g id="ject-logo"><rect x="0" y="0" width="1080" height="1080" style="fill:none;"/><path d="M74.947,1080l0.012,-72l164.115,0l-164.127,72Z" style="fill:#2480db;"/><path d="M74.972,936l0.013,-72l492.343,0l-164.127,72l-328.229,0Z" style="fill:#2480db;"/><path d="M74.998,792l0.002,-12l153.75,-60l666.832,0l-164.127,72l-656.457,0Z" style="fill:#2480db;"/><path d="M413.25,648l184.5,-72l407.25,0l-0,72l-591.75,0Z" style="fill:#2480db;"/><path d="M944.997,648l-180.011,-72l240.014,0l-0,72l-60.003,0Z" style="fill:#1f70c1;"/><path d="M584.976,504l-180.01,-72l600.034,0l-0,72l-420.024,0Z" style="fill:#1f70c1;"/><path d="M224.955,360l-150.008,-60l-0,-12l656.508,0l164.127,72l-670.627,0Z" style="fill:#1f70c1;"/><path d="M74.947,216l-0,-72l328.254,0l164.127,72l-492.381,0Z" style="fill:#1f70c1;"/><path d="M74.947,72l-0,-72l164.127,72l-164.127,0Z" style="fill:#1f70c1;"/></g></svg>