<?xml version="1.0" encoding="UTF-8" standalone="no"?><!DOCTYPE svg PUBLIC "-//W3C//DTD SVG 1.1//EN" "http://www.w3.org/Graphics/SVG/1.1/DTD/svg11.dtd"><svg width="100%" height="100%" viewBox="0 0 1296 432" version="1.1" xmlns="http://www.w3.org/2000/svg" xmlns:xlink="http://www.w3.org/1999/xlink" xml:space="preserve" xmlns:serif="http://www.serif.com/" style="fill-rule:evenodd;clip-rule:evenodd;stroke-linejoin:round;stroke-miterlimit:2;"><g transform="matrix(125,0,0,125,654.255,236.5)"><path d="M0.033,-0l0,-0.14l0.045,0c0.03,0 0.054,-0.008 0.072,-0.025c0.019,-0.017 0.028,-0.04 0.028,-0.068l-0,-0.512l0.155,0l0,0.505c0,0.048 -0.01,0.09 -0.031,0.126c-0.021,0.036 -0.05,0.064 -0.089,0.084c-0.038,0.02 -0.083,0.03 -0.135,0.03l-0.045,-0Z" style="fill:#2071c1;fill-rule:nonzero;"/></g><g transform="matrix(125,0,0,125,710.005,236.5)"><path d="M0.066,-0l0,-0.745l0.501,0l0,0.135l-0.346,0l0,0.169l0.326,-0l0,0.135l-0.326,-0l0,0.171l0.346,-0l0,0.135l-0.501,-0Z" style="fill:#2071c1;fill-rule:nonzero;"/></g><g transform="matrix(125,0,0,125,789.88,236.5)"><path d="M0.42,0.012c-0.053,0 -0.103,-0.01 -0.149,-0.029c-0.045,-0.019 -0.085,-0.046 -0.119,-0.081c-0.034,-0.035 -0.061,-0.075 -0.08,-0.122c-0.019,-0.047 -0.028,-0.098 -0.028,-0.153c-0,-0.055 0.009,-0.106 0.028,-0.153c0.019,-0.047 0.045,-0.088 0.079,-0.122c0.034,-0.035 0.074,-0.061 0.119,-0.08c0.046,-0.019 0.096,-0.029 0.15,-0.029c0.054,0 0.102,0.009 0.145,0.027c0.043,0.018 0.08,0.042 0.11,0.072c0.03,0.03 0.051,0.063 0.064,0.1l-0.137,0.066c-0.013,-0.036 -0.035,-0.066 -0.067,-0.089c-0.031,-0.024 -0.07,-0.036 -0.115,-0.036c-0.044,0 -0.083,0.01 -0.116,0.031c-0.033,0.021 -0.059,0.049 -0.078,0.086c-0.018,0.036 -0.027,0.078 -0.027,0.127c-0,0.049 0.009,0.091 0.027,0.128c0.019,0.037 0.045,0.065 0.078,0.086c0.033,0.021 0.072,0.031 0.116,0.031c0.045,-0 0.084,-0.012 0.115,-0.035c0.032,-0.024 0.054,-0.054 0.067,-0.09l0.137,0.066c-0.013,0.037 -0.034,0.07 -0.064,0.1c-0.03,0.03 -0.067,0.054 -0.11,0.072c-0.043,0.018 -0.091,0.027 -0.145,0.027Z" style="fill:#2071c1;fill-rule:nonzero;"/></g><g transform="matrix(125,0,0,125,892.63,236.5)"><path d="M0.2,-0l0,-0.61l-0.189,0l-0,-0.135l0.53,0l0,0.135l-0.186,0l-0,0.61l-0.155,-0Z" style="fill:#2071c1;fill-rule:nonzero;"/></g><g transform="matrix(125,0,0,125,961.63,236.5)"></g><g id="ject-logo"><rect x="234" y="126" width="180" height="180" style="fill:none;"/><path d="M246.491,306l0.002,-12l27.353,0l-27.355,12Z" style="fill:#2480db;"/><path d="M246.495,282l0.003,-12l82.057,0l-27.355,12l-54.705,0Z" style="fill:#2480db;"/><path d="M246.5,258l0,-2l25.625,-10l111.139,0l-27.355,12l-109.409,0Z" style="fill:#2480db;"/><path d="M302.875,234l30.75,-12l67.875,-0l-0,12l-98.625,0Z" style="fill:#2480db;"/><path d="M391.499,234l-30.001,-12l40.002,-0l-0,12l-10.001,0Z" style="fill:#1f70c1;"/><path d="M331.496,210l-30.002,-12l100.006,-0l-0,12l-70.004,-0Z" style="fill:#1f70c1;"/><path d="M271.493,186l-25.002,-10l0,-2l109.418,0l27.355,12l-111.771,0Z" style="fill:#1f70c1;"/><path d="M246.491,162l0,-12l54.709,0l27.355,12l-82.064,0Z" style="fill:#1f70c1;"/><path d="M246.491,138l0,-12l27.355,12l-27.355,0Z" style="fill:#1f70c1;"/></g><g transform="matrix(50,0,0,50,974.93,300.55)"></g><text x="649.881px" y="300.55px" style="font-family:'Roboto-Mono-Regular', 'Roboto Mono';font-size:50px;fill:#2071c1;">f<tspan x="682.664px 715.446px 748.229px 781.012px 813.794px 846.577px 879.359px 912.142px 944.925px " y="300.55px 300.55px 300.55px 300.55px 300.55px 300.55px 300.55px 300.55px 300.55px ">unctional</tspan></text></svg>